<?xml version="1.0" encoding="utf-8" ?><svg xmlns="http://www.w3.org/2000/svg" xmlns:xlink="http://www.w3.org/1999/xlink" width="24" height="24"><path fill="#484849" transform="matrix(1 0 0 1 0 0.900055)" d="M9.1458 13.8912C7.7099 14.6886 7.4969 13.4436 7.4969 13.4436L5.6973 9.2608C5.0049 7.2732 6.2966 8.3646 6.2966 8.3646C6.2966 8.3646 7.405 9.1998 8.2461 9.7087C9.0869 10.2176 10.0451 9.8581 10.0451 9.8581L21.8099 4.4492C19.6394 1.759 16.0538 0 11.9945 0C5.3698 0 0 4.6812 0 10.4561C0 13.7778 1.7781 16.7342 4.5477 18.6504L4.0482 21.5102C4.0482 21.5102 3.8048 22.3451 4.6486 21.9579C5.2236 21.6938 6.6895 20.7477 7.5621 20.1719C8.9339 20.648 10.4284 20.9124 11.9952 20.9124C18.6194 20.9124 23.9902 16.2312 23.9903 10.4562C23.9902 8.7835 23.5377 7.2038 22.736 5.8016C18.9877 8.048 10.2693 13.2684 9.1458 13.8912Z"/></svg>