<svg xmlns="http://www.w3.org/2000/svg" width="15" height="14" viewBox="0 0 15 14" fill="none"><path d="M4.78625 4.78648C4.66184 4.67056 4.4973 4.60745 4.32729 4.61045C4.15728 4.61345 3.99506 4.68233 3.87483 4.80256C3.75459 4.9228 3.68572 5.08501 3.68272 5.25502C3.67972 5.42504 3.74283 5.58958 3.85875 5.71398L7.35875 9.21398C7.48077 9.3361 7.64599 9.40522 7.81861 9.40637C7.99124 9.40751 8.15737 9.34059 8.281 9.22011L11.781 5.80498C11.9029 5.68282 11.9718 5.51754 11.9727 5.34494C11.9737 5.17235 11.9066 5.00634 11.786 4.88286C11.6654 4.75939 11.501 4.6884 11.3284 4.68526C11.1559 4.68212 10.989 4.7471 10.864 4.86611L7.82775 7.82798L4.78625 4.78648Z" fill="currentColor"></path></svg>