<svg width="64" height="64" viewBox="0 0 64 64" fill="none" xmlns="http://www.w3.org/2000/svg">
<path d="M8 7.5C8 4.73858 10.2386 2.5 13 2.5H55C57.7614 2.5 60 4.73858 60 7.5V56.5C60 59.2614 57.7614 61.5 55 61.5H13C10.2386 61.5 8 59.2614 8 56.5V7.5Z" fill="white" style="fill:white;fill-opacity:1;"/>
<path fill-rule="evenodd" clip-rule="evenodd" d="M55 5.5H13C11.8954 5.5 11 6.39543 11 7.5V56.5C11 57.6046 11.8954 58.5 13 58.5H55C56.1046 58.5 57 57.6046 57 56.5V7.5C57 6.39543 56.1046 5.5 55 5.5ZM13 2.5C10.2386 2.5 8 4.73858 8 7.5V56.5C8 59.2614 10.2386 61.5 13 61.5H55C57.7614 61.5 60 59.2614 60 56.5V7.5C60 4.73858 57.7614 2.5 55 2.5H13Z" fill="#3A7DFF" fill-opacity="0.64" style="fill:#3A7DFF;fill:color(display-p3 0.2275 0.4902 1.0000);fill-opacity:0.64;"/>
<rect x="29" y="19.5" width="23" height="3" fill="#3A7DFF" fill-opacity="0.3" style="fill:#3A7DFF;fill:color(display-p3 0.2292 0.4912 1.0000);fill-opacity:0.3;"/>
<rect x="29" y="27.5" width="23" height="3" fill="#3A7DFF" fill-opacity="0.3" style="fill:#3A7DFF;fill:color(display-p3 0.2292 0.4912 1.0000);fill-opacity:0.3;"/>
<rect x="29" y="35.5" width="23" height="3" fill="#3A7DFF" fill-opacity="0.3" style="fill:#3A7DFF;fill:color(display-p3 0.2292 0.4912 1.0000);fill-opacity:0.3;"/>
<rect x="29" y="43.5" width="23" height="3" fill="#3A7DFF" fill-opacity="0.3" style="fill:#3A7DFF;fill:color(display-p3 0.2292 0.4912 1.0000);fill-opacity:0.3;"/>
<path fill-rule="evenodd" clip-rule="evenodd" d="M4 14.5C4 13.3954 4.89543 12.5 6 12.5H38C39.1046 12.5 40 13.3954 40 14.5V49.5C40 50.6046 39.1046 51.5 38 51.5H6C4.89543 51.5 4 50.6046 4 49.5V14.5Z" fill="url(#paint0_linear_263_5871)"/>
<g filter="url(#filter0_d_263_5871)">
<path d="M13.3203 40.9185L8 24.377H12.7812L17.2578 38.6972H14.8438L19.5547 24.377H23.8203L28.2734 38.6972H25.9531L30.5703 24.377H35L29.6797 40.9185H24.7109L20.9141 28.7486H22.25L18.2891 40.9185H13.3203Z" fill="white" style="fill:white;fill-opacity:1;"/>
</g>
<defs>
<filter id="filter0_d_263_5871" x="7.10728" y="22.5915" width="32.3563" height="21.8978" filterUnits="userSpaceOnUse" color-interpolation-filters="sRGB">
<feFlood flood-opacity="0" result="BackgroundImageFix"/>
<feColorMatrix in="SourceAlpha" type="matrix" values="0 0 0 0 0 0 0 0 0 0 0 0 0 0 0 0 0 0 127 0" result="hardAlpha"/>
<feOffset dx="1.78544" dy="0.892718"/>
<feGaussianBlur stdDeviation="1.33908"/>
<feColorMatrix type="matrix" values="0 0 0 0 0 0 0 0 0 0 0 0 0 0 0 0 0 0 0.08 0"/>
<feBlend mode="normal" in2="BackgroundImageFix" result="effect1_dropShadow_263_5871"/>
<feBlend mode="normal" in="SourceGraphic" in2="effect1_dropShadow_263_5871" result="shape"/>
</filter>
<linearGradient id="paint0_linear_263_5871" x1="41.4682" y1="-0.199927" x2="2.65938" y2="52.7261" gradientUnits="userSpaceOnUse">
<stop stop-color="#34A4FF" style="stop-color:#34A4FF;stop-color:color(display-p3 0.2039 0.6431 1.0000);stop-opacity:1;"/>
<stop offset="0.999235" stop-color="#1E6FFF" style="stop-color:#1E6FFF;stop-color:color(display-p3 0.1176 0.4353 1.0000);stop-opacity:1;"/>
</linearGradient>
</defs>
</svg>
